<?xml version="1.0" standalone="no"?>
<!DOCTYPE svg PUBLIC "-//W3C//DTD SVG 20010904//EN"
 "http://www.w3.org/TR/2001/REC-SVG-20010904/DTD/svg10.dtd">
<svg version="1.0" xmlns="http://www.w3.org/2000/svg"
 width="300.000000pt" height="300.000000pt" viewBox="0 0 300.000000 300.000000"
 preserveAspectRatio="xMidYMid meet">
<metadata>
Created by potrace 1.10, written by Peter Selinger 2001-2011
</metadata>
<g transform="translate(0.000000,300.000000) scale(0.100000,-0.100000)"
fill="#000000" stroke="none">
<path d="M1257 2599 c-322 -37 -601 -162 -792 -353 -86 -86 -139 -165 -178
-265 -25 -64 -31 -94 -35 -188 -5 -126 13 -208 71 -317 41 -77 170 -213 255
-270 110 -72 276 -146 385 -170 5 -1 -93 -69 -217 -151 l-226 -150 0 -153 0
-152 420 280 c231 154 422 280 425 280 3 0 5 -119 5 -265 l0 -265 130 0 130 0
0 265 0 266 28 -15 c15 -9 203 -132 417 -275 215 -143 394 -256 398 -252 4 4
6 70 5 147 l-3 139 -223 149 -222 150 102 36 c120 43 187 75 280 137 246 162
375 430 324 673 -79 380 -507 674 -1051 723 l-49 5 109 -56 c135 -70 215 -124
300 -204 399 -373 342 -885 -133 -1192 -92 -60 -214 -116 -253 -116 l-29 0 0
279 0 279 33 28 c33 28 152 87 200 98 l27 6 0 -74 c0 -84 14 -106 55 -90 20 7
155 181 302 390 l23 31 -231 82 c-126 44 -238 81 -247 81 -24 0 -42 -19 -42
-45 0 -11 16 -44 35 -72 19 -29 35 -54 35 -57 0 -2 -30 -14 -67 -27 -84 -27
-134 -52 -196 -95 -26 -19 -52 -34 -57 -34 -5 0 -32 15 -58 34 -59 43 -159 91
-223 107 -27 7 -49 16 -49 21 0 4 16 30 35 57 19 26 35 57 35 68 0 24 -19 43
-42 43 -31 0 -468 -154 -468 -165 0 -5 67 -98 148 -205 149 -198 172 -219 208
-190 10 9 14 34 14 82 0 67 1 69 23 63 68 -19 138 -50 187 -83 l55 -37 3 -294
2 -294 -34 6 c-18 3 -72 24 -118 46 -256 122 -434 305 -504 517 -26 79 -29
102 -28 209 1 102 5 131 27 193 81 231 276 433 545 563 73 36 97 52 75 48 -5
-1 -39 -5 -76 -10z"/>
</g>
</svg>
