<?xml version="1.0" standalone="no"?>
<!DOCTYPE svg PUBLIC "-//W3C//DTD SVG 20010904//EN"
 "http://www.w3.org/TR/2001/REC-SVG-20010904/DTD/svg10.dtd">
<svg version="1.0" xmlns="http://www.w3.org/2000/svg"
 width="300.000000pt" height="300.000000pt" viewBox="0 0 300.000000 300.000000"
 preserveAspectRatio="xMidYMid meet">
<metadata>
Created by potrace 1.10, written by Peter Selinger 2001-2011
</metadata>
<g transform="translate(0.000000,300.000000) scale(0.100000,-0.100000)"
fill="#000000" stroke="none">
<path d="M1275 2603 c-323 -41 -599 -158 -792 -336 -99 -91 -187 -234 -218
-352 -19 -75 -19 -214 0 -290 48 -189 201 -365 419 -481 91 -48 244 -104 285
-104 26 0 26 0 -4 -15 -16 -9 -123 -78 -237 -153 l-207 -137 -3 -153 c-2 -83
-2 -152 0 -152 2 0 192 126 422 280 231 154 422 280 425 280 3 0 5 -119 5
-265 l0 -265 130 0 130 0 0 265 c0 146 2 265 5 265 2 0 188 -122 412 -271 224
-149 413 -273 418 -275 6 -3 9 49 8 146 l-1 150 -224 148 -223 147 96 32 c267
87 462 240 560 438 91 185 89 349 -6 542 -146 296 -531 513 -990 557 l-60 6
101 -48 c384 -186 599 -481 581 -801 -9 -174 -76 -318 -214 -459 -117 -120
-353 -262 -434 -262 l-29 0 0 284 0 284 48 30 c54 35 144 78 185 87 l27 7 0
-75 c0 -85 13 -107 55 -91 14 5 84 92 174 214 82 113 148 206 147 207 -3 3
-295 107 -399 141 -59 20 -82 24 -95 16 -31 -20 -26 -54 16 -114 l40 -57 -71
-23 c-90 -28 -150 -58 -210 -104 l-47 -36 -47 37 c-58 43 -169 98 -238 115
-27 7 -51 13 -53 14 -2 1 15 26 37 55 23 30 41 63 41 75 0 25 -18 44 -42 44
-31 0 -468 -154 -468 -165 0 -5 67 -98 148 -205 132 -176 150 -195 179 -198
27 -3 33 1 39 22 3 14 4 50 2 81 -2 38 1 55 9 55 28 0 152 -54 203 -88 l55
-37 3 -292 2 -293 -22 0 c-36 0 -188 72 -281 133 -196 128 -327 303 -371 494
-72 321 107 644 479 861 39 22 90 48 115 58 79 30 75 39 -15 27z m-229 -116
c-127 -103 -180 -155 -236 -229 -122 -161 -176 -322 -167 -493 10 -200 90
-361 258 -520 90 -85 176 -144 291 -199 48 -22 88 -45 88 -51 -1 -12 -690
-475 -707 -475 -10 0 -13 26 -13 95 l0 94 210 141 c115 78 215 150 220 160 7
14 7 26 1 39 -10 19 -18 22 -131 62 -286 99 -496 296 -555 519 -32 120 -13
287 48 405 70 139 232 287 417 380 88 45 254 104 290 104 24 0 23 -2 -14 -32z
m994 3 c372 -121 621 -369 661 -658 24 -163 -42 -342 -175 -477 -112 -113
-224 -181 -401 -245 -80 -28 -125 -57 -125 -80 0 -18 66 -69 242 -185 l188
-125 0 -96 c0 -87 -2 -96 -17 -92 -25 7 -703 456 -703 465 0 4 45 30 101 56
122 60 231 139 325 239 300 317 283 740 -43 1065 -34 34 -90 83 -125 109 -35
25 -65 48 -67 50 -14 14 61 0 139 -26z m-880 -446 c-42 -80 -33 -94 91 -138
42 -15 112 -49 155 -77 43 -27 85 -49 94 -49 9 0 47 20 85 45 39 25 104 57
145 72 122 43 141 73 95 148 -28 46 -30 55 -12 55 32 0 372 -129 375 -142 2
-12 -176 -265 -225 -320 -22 -25 -33 -13 -33 35 0 57 -22 87 -63 87 -70 -1
-236 -90 -262 -141 -19 -36 -22 -543 -3 -584 9 -19 8 -31 0 -48 -8 -14 -13
-101 -15 -252 l-2 -230 -85 0 -85 0 -7 240 c-3 132 -6 251 -6 265 0 14 1 156
2 317 l1 291 -25 27 c-37 40 -127 91 -203 116 l-68 22 -24 -23 c-18 -17 -25
-35 -27 -74 -2 -28 -7 -51 -12 -51 -13 0 -245 307 -246 325 0 11 52 33 178 77
97 34 185 62 195 62 15 1 13 -6 -13 -55z"/>
</g>
</svg>
